<?xml version="1.0" encoding="UTF-8"?>
<svg id="Layer_1" data-name="Layer 1" xmlns="http://www.w3.org/2000/svg" viewBox="0 0 262 262"><metadata><?xpacket begin="" id="W5M0MpCehiHzreSzNTczkc9d"?><x:xmpmeta xmlns:x="adobe:ns:meta/" x:xmptk="XMP Core 6.0.0"><rdf:RDF xmlns:rdf="http://www.w3.org/1999/02/22-rdf-syntax-ns#"><rdf:Description rdf:about="" xmlns:xmp="http://ns.adobe.com/xap/1.0/" xmlns:xmpMM="http://ns.adobe.com/xap/1.0/mm/" xmlns:dc="http://purl.org/dc/elements/1.1/" xmlns:dcterms="http://purl.org/dc/terms/" xmpMM:DocumentID="xmp.did:cb9f5498-bb58-4572-8043-8c369e6bfb9b" xmpMM:InstanceID="xmp.iid:cb9f5498-bb58-4572-8043-8c369e6bfb9b" dcterms:provenance="https://cai-manifests.adobe.com/manifests/urn-c2pa-70798e55-acbf-42e5-a1c1-613162e6bfeb-adobe"> </rdf:Description></rdf:RDF></x:xmpmeta>
<?xpacket end="w"?></metadata>
  <defs>
    <style>
      .cls-1 {
        fill: #fff;
      }

      .cls-2 {
        stroke: #000;
        stroke-miterlimit: 10;
      }
    </style>
  </defs>
  <rect class="cls-1" x="-4.43" y="-3.43" width="269" height="267"/>
  <g>
    <g>
      <path class="cls-2" d="M89.23,233.36h-.5l-53.48-31.76v-71.51s6.22-3.49,6.22-3.49l-1.75-10.09,1.64-1.25c-1.37-.66-2.37-1.52-2.6-2.93l-1.92-11.66L171.37,31.62l6.28,2.53,2.39,12.93-1.29,1.52c1.2.59,2.14,1.79,2.08,3.2l.75,3.02,50.42,29.28v75.43c-2.05,1.36-3.85,2.32-5.99,3.09l-39.94-23.43-91.33,47.75-.02,43.24-5.49,3.18ZM45.4,101.28L174.32,35.16c-.89-.67-1.72-1.06-2.86-1.39L40.68,100.86c1.57,1.67,2.79,1.41,4.72.41ZM46.56,113.95L177.92,46.43l-1.97-9.88L44.46,103.94c.6,3.54,1.06,6.59,2.1,10.01ZM48.25,116.67L177.08,50.43c-.54-.73-1.6-.53-2.57-.04L45.86,116.5l-2.61-.08c1.34,1.3,2.9,1.33,5,.25ZM49.14,129.04L180.62,61.36l-1.89-9.58-79.08,40.7-52.41,26.87c.45,3.32,1,6.4,1.89,9.69ZM223.58,84.83c1.92,1.12,3.29,1.91,5.49-.27l-46.89-27.22c-.16,1.24.06,2.74.63,3.74l40.76,23.75ZM222.23,108.27c.99.56,2.2,1.1,2.86,1.28l-.05-21.71-41.76-24.27.69,3.89,38,22.07.26,18.74ZM179.7,65.63c.01-.48-1.36-1.05-1.83-.81L49.47,131.72c44.26-20.87,86.59-44.41,130.22-66.09ZM183.61,76.39l-2.02-9.74L52.4,133.14l9.94,5.71,121.27-62.46ZM220.21,107.03l.06-16.3-35.73-20.68,3.34,19.02,32.33,17.96ZM182.9,91.3c1.67-.62,2.46-1.03,3.15-1.67l-2.21-10.96c-.99.25-2.39.98-2.97,1.82l2.03,10.81ZM179.33,93.24c.72-.1,1.9-1.02,1.8-1.57l-1.99-10.21c-.33-.18-1.45-.04-1.67.32s-.23,1.32-.13,1.78l2,9.69ZM176.58,94.57c.18-3.96-.12-8.02-1.22-11.6-1.26.54-1.87,1.22-1.86,1.91l.29,11.37c1.09-.46,2.21-1.07,2.79-1.68ZM171.89,97.22l-.21-12.47-107.17,55.19c4.17,2.67,7.84,4.78,12.02,6.98l95.36-49.69ZM227.01,159.74c1.73-.29,3.05-.88,3.05-1.63v-71.56s-3.06,1.7-3.06,1.7v71.48ZM108.7,140.5l86.51-45.15-7.49-4.13-109.21,56.85,7.44,4.47,22.75-12.05ZM95.36,157.77l109.34-57.04-7.6-4.19-109.09,56.97c2.51,1.71,4.68,3.08,7.36,4.26ZM214.22,106l-7.52-4.08-111.84,58.29c-.13,2.92-.17,5.65.17,8.16l119.19-62.37ZM44.35,114.13l-1.74-9.91-3.51-1.19,1.76,9.66,3.49,1.44ZM223.68,111.46c-2.81-1.97-4.85-3.09-7.41-4.32l-121.5,63.53.11,8.18,128.8-67.4ZM95.45,184.36l129.3-67.67c.41-1.27.42-2.21-.04-3.59l-59.51,31.22-70.22,36.68c-.4,1.33-.59,2.95.47,3.36ZM47.08,129.42l-1.93-9.89-3.12-1.25,1.66,9.33c.39.86,2.6,1.77,3.39,1.81ZM191.46,136.75c-.75-.43-2.77.95-2.98,1.62l36.62,21.56-.04-41.12-3.01,1.58-.12,33.94-30.48-17.59ZM220.26,145.65l-.05-24.42-21.94,11.57,21.99,12.85ZM88.79,159.86l3.08-1.71-50.3-29.09c-1.21.17-2.53.86-3.16,1.57l50.39,29.23ZM87.82,230.46l.04-68.92-50.64-29.29v68.34s50.6,29.87,50.6,29.87ZM220.02,151.09c.35-1.18.3-2.52-.11-3.44l-23.34-13.66c-.93.03-2.38.82-3.15,1.62l26.61,15.49ZM92.81,228.87v-68.6c-1.11.36-2,.88-3.04,1.65l.02,68.42c1.08-.25,1.89-.64,3.02-1.47Z"/>
      <path class="cls-2" d="M46.56,113.95c-1.04-3.42-1.5-6.47-2.1-10.01L175.95,36.55l1.97,9.88L46.56,113.95Z"/>
      <path class="cls-2" d="M49.14,129.04c-.89-3.29-1.44-6.37-1.89-9.69l52.41-26.87,79.08-40.7,1.89,9.58L49.14,129.04Z"/>
      <polygon class="cls-2" points="183.61 76.39 62.35 138.85 52.4 133.14 181.59 66.66 183.61 76.39"/>
      <path class="cls-2" d="M223.68,111.46l-128.8,67.4-.11-8.18,121.5-63.53c2.56,1.23,4.6,2.35,7.41,4.32Z"/>
      <path class="cls-2" d="M214.22,106l-119.19,62.37c-.34-2.51-.3-5.24-.17-8.16l111.84-58.29,7.52,4.08Z"/>
      <path class="cls-2" d="M95.36,157.77c-2.68-1.19-4.84-2.55-7.36-4.26l109.09-56.97,7.6,4.19-109.34,57.04Z"/>
      <polygon class="cls-2" points="108.7 140.5 85.95 152.55 78.51 148.07 187.72 91.22 195.21 95.35 108.7 140.5"/>
      <path class="cls-2" d="M87.82,230.46l-50.61-29.87v-68.34s50.65,29.29,50.65,29.29l-.04,68.92ZM84.68,224.95l.13-61.63-44.46-25.79-.23,61.18,44.56,26.24Z"/>
      <path class="cls-2" d="M95.45,184.36c-1.06-.41-.86-2.03-.47-3.36l70.22-36.68,59.51-31.22c.46,1.38.45,2.32.04,3.59l-129.3,67.67Z"/>
      <path class="cls-2" d="M45.4,101.28c-1.94.99-3.15,1.26-4.72-.41L171.45,33.76c1.15.33,1.97.72,2.86,1.39L45.4,101.28Z"/>
      <path class="cls-2" d="M191.46,136.75l30.48,17.59.12-33.94,3.01-1.58.04,41.12-36.62-21.56c.2-.67,2.22-2.06,2.98-1.62Z"/>
      <path class="cls-2" d="M227.01,159.74v-71.48s3.05-1.7,3.05-1.7v71.56c0,.74-1.33,1.33-3.05,1.63Z"/>
      <path class="cls-2" d="M92.81,228.87c-1.13.82-1.94,1.22-3.02,1.47l-.02-68.42c1.04-.77,1.94-1.28,3.04-1.65v68.6Z"/>
      <path class="cls-2" d="M222.23,108.27l-.26-18.74-38-22.07-.69-3.89,41.76,24.27.05,21.71c-.67-.19-1.87-.72-2.86-1.28Z"/>
      <path class="cls-2" d="M179.7,65.63c-43.63,21.68-85.96,45.22-130.22,66.09l128.39-66.9c.47-.25,1.84.33,1.83.81Z"/>
      <path class="cls-2" d="M48.25,116.67c-2.1,1.08-3.66,1.05-5-.25l2.61.08L174.5,50.39c.97-.5,2.04-.69,2.57.04L48.25,116.67Z"/>
      <path class="cls-2" d="M88.79,159.86l-50.39-29.23c.63-.7,1.95-1.4,3.16-1.57l50.3,29.09-3.08,1.71Z"/>
      <path class="cls-2" d="M223.58,84.83l-40.76-23.75c-.57-1-.79-2.5-.63-3.74l46.89,27.22c-2.2,2.18-3.58,1.38-5.49.27Z"/>
      <path class="cls-2" d="M220.02,151.09l-26.61-15.49c.78-.8,2.23-1.59,3.15-1.62l23.34,13.66c.42.92.47,2.26.11,3.44Z"/>
      <path class="cls-2" d="M182.9,91.3l-2.03-10.81c.58-.84,1.98-1.56,2.97-1.82l2.21,10.96c-.69.63-1.48,1.05-3.15,1.67Z"/>
      <path class="cls-2" d="M176.58,94.57c-.58.6-1.69,1.22-2.79,1.68l-.29-11.37c-.02-.69.6-1.37,1.86-1.91,1.11,3.58,1.4,7.64,1.22,11.6Z"/>
      <polygon class="cls-2" points="44.35 114.13 40.86 112.69 39.1 103.03 42.61 104.22 44.35 114.13"/>
      <path class="cls-2" d="M47.08,129.42c-.79-.04-3-.95-3.39-1.81l-1.66-9.33,3.12,1.25,1.93,9.89Z"/>
      <path class="cls-2" d="M179.33,93.24l-2-9.69c-.1-.46-.08-1.42.13-1.78s1.34-.5,1.67-.32l1.99,10.21c.11.55-1.07,1.47-1.8,1.57Z"/>
      <path class="cls-2" d="M84.68,224.95l-44.56-26.24.23-61.18,44.46,25.79-.13,61.63ZM44.98,194.25l.1-51.84c-1-.72-1.99-1.22-2.96-1.41l-.04,55.22c1.18-.14,2.22-.77,2.9-1.97ZM52.51,166.5c-.23-3.37-.3-6.26-.89-9.1l-2.46-12.06c-.49-.71-1.47-1.44-2.21-1.39l-.07,50.98,36.17,21.25.04-32.69-30.58-16.98ZM56.39,156.75l-1.55-8.59c-.97-.65-2.27-1.34-3.6-1.96l2.48,12.15c.53.1,2.8-.86,2.66-1.6ZM63.77,153.26l-6.81-3.99,1.43,7.05,5.38-3.06ZM73.28,158.85l-7.32-4.4-10.6,5.49,7.83,4.25,10.09-5.34ZM73,169.52l9.67-5.18-7.38-4.43-9.86,5.41,7.57,4.19ZM82.76,181.11c.24-1.49.26-2.72.07-3.99l-28.66-15.69c-.19,1.58-.03,2.99.45,4.1l28.14,15.59ZM83.01,175.13l-.04-8.69-7.9,4.12,7.94,4.57ZM82.75,221.71c.44-1.22.39-2.43-.02-3.54l-36.48-21.41c-1.18.36-2.21.89-2.99,1.59l39.49,23.35Z"/>
      <path class="cls-2" d="M44.98,194.25c-.68,1.21-1.73,1.84-2.9,1.97l.04-55.22c.97.19,1.96.69,2.96,1.41l-.1,51.84Z"/>
      <path class="cls-2" d="M82.75,221.71l-39.49-23.35c.78-.71,1.81-1.23,2.99-1.59l36.48,21.41c.41,1.1.46,2.31.02,3.54Z"/>
      <path class="cls-2" d="M82.76,181.11l-28.14-15.59c-.48-1.11-.64-2.52-.45-4.1l28.66,15.69c.19,1.27.17,2.5-.07,3.99Z"/>
      <polygon class="cls-2" points="73.28 158.85 63.19 164.19 55.36 159.95 65.96 154.45 73.28 158.85"/>
      <polygon class="cls-2" points="73 169.52 65.43 165.33 75.29 159.92 82.66 164.35 73 169.52"/>
      <polygon class="cls-2" points="83.01 175.13 75.07 170.56 82.97 166.43 83.01 175.13"/>
      <path class="cls-2" d="M56.39,156.75c.13.74-2.14,1.7-2.66,1.6l-2.48-12.15c1.33.62,2.62,1.31,3.6,1.96l1.55,8.59Z"/>
    </g>
    <polygon points="44.89 161.25 38.62 115.49 36.11 100.6 70.19 154.36 44.89 161.25"/>
    <polygon points="177.66 34.15 185.23 68.47 185.73 84.51 167.33 53.11 177.66 34.15"/>
    <polygon points="43.88 162.65 46.82 145.05 55.1 168.46 43.88 162.65"/>
  </g>
</svg>